#N canvas 1230 653 632 332 10;
#X obj 282 13 inlet;
#X obj 282 95 unpack;
#X obj 284 146 pack f f \$0;
#X obj 101 158 prepend /\$1;
#X obj 282 35 t a a;
#X obj 282 123 + 2;
#X obj 228 107 outlet;
#X msg 143 104 set \$1;
#X obj 91 30 routeOSC /\$1;
#X obj 91 54 routeOSC /sys /data;
#X obj 171 78 route bang;
#X obj 101 134 prepend /data;
#X obj 101 101 tgl 15 0 empty empty \$1 -3 -10 0 12 -262144 -33289
-33289 0 81;
#X obj 282 74 route size;
#X obj 200 214 namecanvas \$0-tgl;
#X msg 201 172 \; \$3-tgl coords 0 -1 1 1 \$1 \$1 2 100 100;
#X obj 198 106 f;
#X obj 91 6 r from-OSC;
#X obj 101 181 s to-OSC;
#X connect 0 0 4 0;
#X connect 1 0 5 0;
#X connect 1 1 2 1;
#X connect 2 0 15 0;
#X connect 3 0 18 0;
#X connect 4 0 13 0;
#X connect 4 1 12 0;
#X connect 5 0 2 0;
#X connect 7 0 12 0;
#X connect 8 0 9 0;
#X connect 9 1 10 0;
#X connect 10 0 16 0;
#X connect 10 1 7 0;
#X connect 10 1 6 0;
#X connect 10 1 16 1;
#X connect 11 0 3 0;
#X connect 12 0 11 0;
#X connect 13 0 1 0;
#X connect 16 0 6 0;
#X connect 17 0 8 0;
#X coords 0 -1 1 1 17 17 2 100 100;
