#N canvas 672 479 583 321 10;
#X obj 311 111 outlet;
#X msg 234 110 set \$1;
#X obj 365 23 inlet;
#X obj 365 127 unpack;
#X obj 363 173 pack f f \$0;
#X obj 364 96 route size range;
#X obj 154 34 routeOSC /\$1;
#X obj 101 262 prepend /\$1;
#X msg 150 108 range \$1 \$2;
#X obj 365 45 t a a;
#X obj 101 103 vsl 15 128 0 1 0 0 empty empty \$1 -3 -12 0 12 -262144
-1 -1 0 1;
#X obj 363 236 namecanvas \$0-vsl;
#X msg 327 197 \; \$3-vsl coords 0 -1 1 1 \$1 \$2 2 100 100;
#X obj 363 150 + 2;
#X obj 393 150 + 7;
#X msg 205 196 /sys/range \$1 \$2;
#X obj 101 239 prepend /data;
#X obj 154 58 routeOSC /sys /data;
#X obj 248 82 route bang;
#X obj 150 81 routeOSC /range;
#X obj 282 111 f;
#X obj 154 10 r from-OSC;
#X obj 101 284 s to-OSC;
#X connect 1 0 10 0;
#X connect 2 0 9 0;
#X connect 3 0 13 0;
#X connect 3 1 14 0;
#X connect 4 0 12 0;
#X connect 5 0 3 0;
#X connect 5 1 15 0;
#X connect 6 0 17 0;
#X connect 7 0 22 0;
#X connect 8 0 10 0;
#X connect 9 0 5 0;
#X connect 9 1 10 0;
#X connect 10 0 16 0;
#X connect 13 0 4 0;
#X connect 14 0 4 1;
#X connect 15 0 7 0;
#X connect 16 0 7 0;
#X connect 17 0 19 0;
#X connect 17 1 18 0;
#X connect 18 0 20 0;
#X connect 18 1 1 0;
#X connect 18 1 0 0;
#X connect 18 1 20 1;
#X connect 19 0 8 0;
#X connect 20 0 0 0;
#X connect 21 0 6 0;
#X coords 0 -1 1 1 17 135 2 100 100;
