#N canvas 438 265 573 333 10;
#X obj 205 100 outlet;
#X msg 161 65 set \$1;
#X obj 256 19 inlet;
#X obj 365 108 unpack;
#X obj 397 150 + 2;
#X obj 363 173 pack f f \$0;
#X obj 364 86 route size range;
#X obj 101 -19 routeOSC /\$1;
#X msg 68 65 range \$1 \$2;
#X obj 256 41 t a a;
#X obj 101 101 nbx 5 15 -1e+38 1e+38 0 0 empty empty \$1 0 -10 0 12
-262144 -33289 -33289 0 256;
#X obj 363 236 namecanvas \$0-nbr;
#X msg 327 197 \; \$3-nbr coords 0 -1 1 1 \$1 \$2 2 100 100;
#X obj 364 130 * 10.33;
#X obj 363 153 + 13;
#X obj 101 5 routeOSC /sys /data;
#X obj 153 33 route bang;
#X obj 39 33 routeOSC /n_range;
#X msg 245 150 /sys/n_range \$1 \$2;
#X obj 174 100 f;
#X obj 101 -43 r from-OSC;
#X obj 134 205 s to-OSC;
#X obj 206 191 prepend /\$1;
#X obj 110 141 prepend /\$1/data;
#X obj 296 18 r \$1;
#X connect 1 0 10 0;
#X connect 2 0 9 0;
#X connect 3 0 13 0;
#X connect 3 1 4 0;
#X connect 4 0 5 1;
#X connect 5 0 12 0;
#X connect 6 0 3 0;
#X connect 6 1 18 0;
#X connect 7 0 15 0;
#X connect 8 0 10 0;
#X connect 9 0 6 0;
#X connect 9 1 10 0;
#X connect 10 0 23 0;
#X connect 13 0 14 0;
#X connect 14 0 5 0;
#X connect 15 0 17 0;
#X connect 15 1 16 0;
#X connect 16 0 19 0;
#X connect 16 1 0 0;
#X connect 16 1 1 0;
#X connect 16 1 19 1;
#X connect 17 0 8 0;
#X connect 18 0 22 0;
#X connect 19 0 0 0;
#X connect 20 0 7 0;
#X connect 22 0 21 0;
#X connect 23 0 21 0;
#X connect 24 0 9 0;
#X coords 0 -1 1 1 64 17 2 100 100;
