#N canvas 887 503 598 317 10;
#X obj 313 26 inlet;
#X obj 393 150 + 2;
#X obj 363 173 pack f f \$0;
#X obj 101 258 prepend /\$1;
#X obj 313 53 t a a;
#X obj 363 150 + 2;
#X obj 101 101 vradio 15 1 0 8 empty empty \$1 -3 -10 0 12 -262144
-1 -1 0;
#X msg 327 197 \; \$3-vradio coords 0 -1 1 1 \$1 \$2 2 100 100;
#X obj 325 239 namecanvas \$0-vradio;
#X obj 354 78 route size number;
#X obj 296 106 outlet;
#X msg 214 110 set \$1;
#X obj 134 34 routeOSC /\$1;
#X obj 131 59 routeOSC /sys /data;
#X obj 238 82 route bang;
#X msg 249 161 /sys/number \$1;
#X obj 130 81 routeOSC /number;
#X obj 101 234 prepend /data;
#X msg 130 108 number \$1;
#X obj 393 127 * 15;
#X obj 366 105 t b f;
#X obj 465 117 loadbang;
#X msg 456 147 8;
#X msg 488 147 15;
#X obj 263 111 f;
#X obj 134 10 r from-OSC;
#X obj 101 281 s to-OSC;
#X connect 0 0 4 0;
#X connect 1 0 2 1;
#X connect 2 0 7 0;
#X connect 3 0 26 0;
#X connect 4 0 9 0;
#X connect 4 1 6 0;
#X connect 5 0 2 0;
#X connect 6 0 17 0;
#X connect 9 0 5 0;
#X connect 9 1 15 0;
#X connect 9 1 20 0;
#X connect 11 0 6 0;
#X connect 12 0 13 0;
#X connect 13 0 16 0;
#X connect 13 1 14 0;
#X connect 14 0 24 0;
#X connect 14 1 11 0;
#X connect 14 1 10 0;
#X connect 14 1 24 1;
#X connect 15 0 3 0;
#X connect 16 0 18 0;
#X connect 16 0 20 0;
#X connect 17 0 3 0;
#X connect 18 0 6 0;
#X connect 19 0 1 0;
#X connect 20 0 2 0;
#X connect 20 1 19 0;
#X connect 21 0 22 0;
#X connect 21 0 23 0;
#X connect 22 0 20 0;
#X connect 23 0 5 0;
#X connect 24 0 10 0;
#X connect 25 0 12 0;
#X coords 0 -1 1 1 17 122 2 100 100;
