#N canvas 140 484 447 209 10;
#X obj 87 33 r from-OSC;
#X obj 87 84 routeOSC /sys /data;
#X obj 87 56 routeOSC /\$1;
#X obj 142 113 prepend \$2;
#X obj 265 133 s to-OSC;
#X obj 265 104 prepend /\$1/data;
#X obj 142 140 s to-OSC-\$3;
#X obj 265 51 r from-OSC-\$3;
#X obj 265 78 route \$2;
#X connect 0 0 2 0;
#X connect 1 1 3 0;
#X connect 2 0 1 0;
#X connect 3 0 6 0;
#X connect 5 0 4 0;
#X connect 7 0 8 0;
#X connect 8 0 5 0;
#X coords 0 0 1 1 85 60 0;
