#N canvas 189 241 450 300 10;
#X obj 25 258 outlet;
#X msg 26 210 color \$1 \$2 \$3;
#X obj 26 176 pack 0 0 0;
#X floatatom 3 119 5 0 0 0 - - -;
#X floatatom 41 119 5 0 0 0 - - -;
#X floatatom 79 119 5 0 0 0 - - -;
#X obj 40 142 t b f;
#X obj 79 143 t b f;
#X msg 156 201 range \$1 \$2;
#X floatatom 133 119 5 0 0 0 - - -;
#X floatatom 171 119 5 0 0 0 - - -;
#X obj 170 143 t b f;
#X obj 156 177 pack 0 0;
#X floatatom 227 119 5 0 0 0 - - -;
#X floatatom 265 119 5 0 0 0 - - -;
#X obj 264 142 t b f;
#X obj 250 176 pack 0 0;
#X msg 250 200 size \$1 \$2;
#X text 135 99 range;
#X text 236 99 size;
#X text 32 99 colors;
#X msg 174 68 127;
#X msg 269 69 15;
#X msg 230 68 128;
#X obj 208 38 bng 15 250 50 0 empty empty empty 17 7 0 10 -262144 -1
-1;
#X obj 209 12 loadbang;
#X obj 284 101 bng 15 250 50 0 empty empty empty 17 7 0 10 -262144
-1 -1;
#X msg 45 73 12;
#X msg 84 73 12;
#X msg 8 73 0;
#X msg 134 68 0;
#X connect 1 0 0 0;
#X connect 2 0 1 0;
#X connect 3 0 2 0;
#X connect 4 0 6 0;
#X connect 5 0 7 0;
#X connect 6 0 2 0;
#X connect 6 1 2 1;
#X connect 7 0 2 0;
#X connect 7 1 2 2;
#X connect 8 0 0 0;
#X connect 9 0 12 0;
#X connect 10 0 11 0;
#X connect 11 0 12 0;
#X connect 11 1 12 1;
#X connect 12 0 8 0;
#X connect 13 0 16 0;
#X connect 14 0 15 0;
#X connect 15 0 16 0;
#X connect 15 1 16 1;
#X connect 16 0 17 0;
#X connect 17 0 0 0;
#X connect 21 0 10 0;
#X connect 22 0 14 0;
#X connect 23 0 13 0;
#X connect 24 0 21 0;
#X connect 24 0 23 0;
#X connect 24 0 22 0;
#X connect 24 0 27 0;
#X connect 24 0 28 0;
#X connect 24 0 30 0;
#X connect 24 0 29 0;
#X connect 25 0 24 0;
#X connect 26 0 24 0;
#X connect 27 0 4 0;
#X connect 28 0 5 0;
#X connect 29 0 3 0;
#X connect 30 0 9 0;
#X coords 0 -1 1 1 300 40 2 0 100;
