#N canvas 648 468 632 332 10;
#X obj 349 2 inlet;
#X obj 393 150 + 2;
#X obj 363 173 pack f f \$0;
#X obj 99 161 prepend /\$1;
#X obj 349 30 t a a;
#X obj 101 101 hradio 15 1 0 8 empty empty \$1 0 -10 0 12 -262144 -1
-1 0;
#X obj 325 239 namecanvas \$0-hradio;
#X msg 327 197 \; \$3-hradio coords 0 -1 1 1 \$1 \$2 2 100 100;
#X obj 352 125 * 15;
#X obj 363 150 + 2;
#X msg 241 134 /sys/number \$1;
#X obj 265 64 outlet;
#X msg 184 63 set \$1;
#X obj 104 -13 routeOSC /\$1;
#X obj 104 11 routeOSC /sys /data;
#X obj 208 35 route bang;
#X obj 100 35 routeOSC /number;
#X obj 99 137 prepend /data;
#X msg 100 62 number \$1;
#X obj 363 102 t b f;
#X obj 363 75 route size number;
#X obj 475 127 loadbang;
#X msg 466 157 8;
#X msg 498 157 15;
#X obj 237 63 f;
#X obj 104 -37 r from-OSC;
#X obj 99 184 s to-OSC;
#X obj 387 2 r \$1;
#X connect 0 0 4 0;
#X connect 1 0 2 1;
#X connect 2 0 7 0;
#X connect 3 0 26 0;
#X connect 4 0 20 0;
#X connect 4 1 5 0;
#X connect 5 0 17 0;
#X connect 8 0 9 0;
#X connect 9 0 2 0;
#X connect 10 0 3 0;
#X connect 12 0 5 0;
#X connect 13 0 14 0;
#X connect 14 0 16 0;
#X connect 14 1 15 0;
#X connect 15 0 24 0;
#X connect 15 1 12 0;
#X connect 15 1 11 0;
#X connect 15 1 24 1;
#X connect 16 0 18 0;
#X connect 16 0 8 0;
#X connect 17 0 3 0;
#X connect 18 0 5 0;
#X connect 19 0 2 0;
#X connect 19 1 1 0;
#X connect 20 0 19 0;
#X connect 20 1 8 0;
#X connect 20 1 10 0;
#X connect 21 0 22 0;
#X connect 21 0 23 0;
#X connect 22 0 8 0;
#X connect 23 0 19 0;
#X connect 24 0 11 0;
#X connect 25 0 13 0;
#X connect 27 0 4 0;
#X coords 0 -1 1 1 122 17 2 100 100;
