#N canvas 875 539 623 290 10;
#X obj 80 182 outlet;
#X obj 258 11 inlet;
#X obj 363 127 unpack;
#X obj 363 173 pack f f \$0;
#X obj 132 159 prepend /\$1;
#X obj 258 43 t a a;
#X obj 101 101 bng 15 100 10 0 empty empty \$1 -3 -10 0 12 -262144
-33289 -33289;
#X obj 363 236 namecanvas \$0-bng;
#X msg 327 197 \; \$3-bng coords 0 -1 1 1 \$1 \$1 2 100 100;
#X obj 363 150 + 2;
#X obj 364 96 route size color;
#X obj 480 48 f;
#X obj 512 47 f;
#X obj 543 47 f;
#X obj 484 69 pack f f f;
#X obj 441 13 t b b b;
#X obj 505 5 unpack f f f;
#X obj 256 138 f;
#X obj 288 137 f;
#X obj 319 137 f;
#X obj 260 159 pack f f f;
#X obj 220 100 t b b b;
#X obj 270 101 unpack f f f;
#X msg 101 68 color \$1 \$2 \$3;
#X obj 325 19 loadbang;
#X msg 341 66 color 0 12 12;
#X obj 330 43 t b b;
#X obj 99 26 routeOSC /\$1;
#X obj 99 48 routeOSC /sys /data;
#X obj 132 135 prepend /data;
#X obj 232 51 t b;
#X obj 232 74 delay 100;
#X obj 99 5 r from-OSC;
#X obj 132 182 s to-OSC;
#X connect 1 0 5 0;
#X connect 2 0 9 0;
#X connect 2 1 3 1;
#X connect 3 0 8 0;
#X connect 4 0 33 0;
#X connect 5 0 10 0;
#X connect 5 1 6 0;
#X connect 6 0 29 0;
#X connect 9 0 3 0;
#X connect 10 0 2 0;
#X connect 10 1 16 0;
#X connect 10 1 22 0;
#X connect 11 0 14 0;
#X connect 12 0 14 1;
#X connect 13 0 14 2;
#X connect 14 0 23 0;
#X connect 15 0 11 0;
#X connect 15 1 12 0;
#X connect 15 2 13 0;
#X connect 16 1 12 1;
#X connect 16 1 11 1;
#X connect 16 2 13 1;
#X connect 17 0 20 0;
#X connect 18 0 20 1;
#X connect 19 0 20 2;
#X connect 20 0 23 0;
#X connect 21 0 17 0;
#X connect 21 1 18 0;
#X connect 21 2 19 0;
#X connect 22 0 17 1;
#X connect 22 1 18 1;
#X connect 22 2 19 1;
#X connect 23 0 6 0;
#X connect 24 0 26 0;
#X connect 25 0 10 0;
#X connect 26 0 21 0;
#X connect 26 1 25 0;
#X connect 27 0 28 0;
#X connect 28 1 15 0;
#X connect 28 1 0 0;
#X connect 28 1 30 0;
#X connect 29 0 4 0;
#X connect 30 0 31 0;
#X connect 31 0 21 0;
#X connect 32 0 27 0;
#X coords 0 -1 1 1 17 17 2 100 100;
