#N canvas 377 325 604 312 10;
#X obj 104 101 hsl 128 15 0 1 0 0 empty empty \$1 5 7 0 12 -262144
-33289 -33289 0 1;
#X obj 264 84 outlet;
#X msg 184 72 set \$1;
#X obj 256 19 inlet;
#X obj 365 127 unpack;
#X obj 393 150 + 2;
#X obj 363 150 + 7;
#X obj 363 236 namecanvas \$0-hsl;
#X obj 363 173 pack f f \$0;
#X obj 365 73 route size range;
#X obj 101 -7 routeOSC /\$1;
#X msg 82 72 range \$1 \$2;
#X obj 256 41 t a a;
#X msg 327 197 \; \$3-hsl coords 0 -1 1 1 \$1 \$2 2 100 100;
#X obj 101 21 routeOSC /sys /data;
#X obj 183 46 route bang;
#X obj 82 47 routeOSC /range;
#X obj 238 86 f;
#X obj 101 -31 r from-OSC;
#X obj 100 201 s to-OSC;
#X obj 101 123 list append \$1;
#X obj 411 95 list append \$1;
#X msg 195 146 /\$3/sys/range \$1 \$2;
#X msg 101 146 /\$2/data \$1;
#X obj 295 20 r \$1;
#X obj 328 20 r \$1-hsl;
#X connect 0 0 20 0;
#X connect 2 0 0 0;
#X connect 3 0 12 0;
#X connect 4 0 6 0;
#X connect 4 1 5 0;
#X connect 5 0 8 1;
#X connect 6 0 8 0;
#X connect 8 0 13 0;
#X connect 9 0 4 0;
#X connect 9 1 21 0;
#X connect 10 0 14 0;
#X connect 11 0 0 0;
#X connect 12 0 9 0;
#X connect 12 1 0 0;
#X connect 14 0 16 0;
#X connect 14 1 15 0;
#X connect 15 0 17 0;
#X connect 15 1 2 0;
#X connect 15 1 1 0;
#X connect 15 1 17 1;
#X connect 16 0 11 0;
#X connect 17 0 1 0;
#X connect 18 0 10 0;
#X connect 20 0 23 0;
#X connect 21 0 22 0;
#X connect 22 0 19 0;
#X connect 23 0 19 0;
#X connect 24 0 12 0;
#X connect 25 0 12 0;
#X coords 0 -1 1 1 135 17 2 100 100;
